<?xml version="1.0" encoding="UTF-8" standalone="no"?>
<!DOCTYPE svg PUBLIC "-//W3C//DTD SVG 1.1//EN" "http://www.w3.org/Graphics/SVG/1.1/DTD/svg11.dtd">
<svg width="100%" height="100%" viewBox="0 0 1023 497" version="1.1" xmlns="http://www.w3.org/2000/svg" xmlns:xlink="http://www.w3.org/1999/xlink" xml:space="preserve" xmlns:serif="http://www.serif.com/" style="fill-rule:evenodd;clip-rule:evenodd;stroke-linejoin:round;stroke-miterlimit:2;">
    <g transform="matrix(1,0,0,1,-2436.7,-1220.89)">
        <path d="M3426.64,1290.51C3356.32,1290.48 3296.77,1290.53 3226.3,1290.51L3213.64,1306.67L3295.51,1306.69L3300.42,1300.48L3346.87,1300.48L3352,1306.64C3379.26,1306.65 3415.52,1306.42 3442.79,1306.43L3426.64,1290.51Z" style="fill:rgb(191,15,181);fill-rule:nonzero;"/>
    </g>
    <g transform="matrix(1,0,0,1,-2436.7,-1220.89)">
        <path d="M2867.47,1717.63L2876.5,1717.63L2876.5,1703.66L2867.47,1717.63ZM2655.52,1690.18L2640.88,1690.18L2624.33,1715.76L2620.72,1712.5L2635.15,1690.18L2619.47,1690.18L2619.47,1717.63L2637.77,1717.63L2655.52,1690.18ZM2675.87,1690.18L2661.25,1690.18L2643.5,1717.63L2658.11,1717.63L2675.87,1690.18ZM2696.44,1690.18L2681.59,1690.18L2663.84,1717.63L2678.65,1717.63L2696.44,1690.18ZM2716.77,1690.18L2702.17,1690.18L2684.38,1717.63L2698.99,1717.63L2716.77,1690.18ZM2737.18,1690.18L2722.5,1690.18L2704.72,1717.63L2719.39,1717.63L2737.18,1690.18ZM2757.41,1690.18L2742.92,1690.18L2725.13,1717.63L2739.64,1717.63L2757.41,1690.18ZM2778.03,1690.18L2763.14,1690.18L2745.37,1717.63L2760.22,1717.63L2778.03,1690.18ZM2798.07,1690.18L2783.76,1690.18L2765.96,1717.63L2780.32,1717.63L2798.07,1690.18ZM2818.2,1690.18L2803.8,1690.18L2786.05,1717.63L2800.48,1717.63L2818.2,1690.18ZM2838.82,1690.18L2823.92,1690.18L2806.21,1717.63L2821.06,1717.63L2838.82,1690.18ZM2859.27,1690.18L2844.55,1690.18L2826.79,1717.63L2841.51,1717.63L2859.27,1690.18ZM2876.5,1690.18L2865,1690.18L2847.24,1717.63L2861.74,1717.63L2876.5,1694.8L2876.5,1690.18Z" style="fill:rgb(191,15,181);"/>
    </g>
    <g transform="matrix(1,0,0,1,-2436.7,-1220.89)">
        <path d="M2600.25,1717.58L2565.71,1683.5L2585.62,1683.5L2610.24,1708.32L2585.62,1683.5L2612.85,1683.5L2619.47,1690.16L2619.47,1717.63L2600.25,1717.58Z" style="fill:rgb(191,15,181);"/>
    </g>
    <g transform="matrix(1,0,0,1,-2436.7,-1220.89)">
        <path d="M2480.69,1477.12L2450.42,1515.11L2450.33,1529.04L2480.6,1489.67L2480.69,1477.12Z" style="fill:rgb(191,15,181);"/>
    </g>
    <g transform="matrix(1,0,0,1,-2436.7,-1220.89)">
        <path d="M2436.7,1686.94L2465.76,1643.86L2465.87,1626.3L2436.7,1668.92L2436.7,1686.94Z" style="fill:rgb(191,15,181);"/>
    </g>
    <g transform="matrix(1,0,0,1,-2436.7,-1220.89)">
        <path d="M2468.33,1640.6L2468.67,1585.52L2460.49,1573.25L2459.99,1652.43L2468.33,1640.6Z" style="fill:rgb(191,15,181);"/>
    </g>
    <g transform="matrix(1,0,0,1,-2436.7,-1220.89)">
        <path d="M2436.7,1651.68L2465.95,1610.13L2466.05,1595.26L2436.7,1637.2L2436.7,1651.68Z" style="fill:rgb(191,15,181);"/>
    </g>
    <g transform="matrix(1,0,0,1,-2436.7,-1220.89)">
        <path d="M2469.26,1491.28L2468.94,1532.05L2462.96,1540.63L2462.76,1576.65L2468.67,1584.87L2468.59,1599.74L2449.89,1599.62L2450.42,1515L2469.26,1491.28Z" style="fill:rgb(191,15,181);"/>
    </g>
    <g transform="matrix(1,0,0,1,-2436.7,-1220.89)">
        <path d="M3459.48,1473.19L3459.62,1397.99L3442.94,1427.64C3442.94,1444.2 3442.93,1458.85 3442.93,1472.51L3442.93,1474.1C3442.93,1487.75 3442.94,1502.4 3442.94,1518.97L3459.62,1548.61L3459.48,1473.19Z" style="fill:rgb(191,15,181);"/>
    </g>
    <g transform="matrix(1,0,0,1,-2436.7,-1220.89)">
        <path d="M2542.06,1245.61L2548.69,1238.47L2638.34,1238.52L2644,1245.61L2779.04,1245.61L2784.73,1238.51L2874.35,1238.47L2880.98,1245.61L2948.55,1245.72L2955.9,1237.62L2944.62,1220.89L2832.98,1220.89L2829.02,1225.94L2594.02,1225.94L2590.06,1220.89L2491.46,1221.49L2474.49,1245.72L2542.06,1245.61Z" style="fill:rgb(191,15,181);"/>
    </g>
    <g transform="matrix(1,0,0,1,-2436.7,-1220.89)">
        <path d="M2474.5,1270.59L3135.98,1270.59L3149.18,1257L2474.52,1257L2474.5,1270.59Z" style="fill:rgb(191,15,181);fill-rule:nonzero;"/>
    </g>
    <g transform="matrix(1,0,0,1,-2436.7,-1220.89)">
        <path d="M2504.4,1683.48L3434.34,1683.7L3434.35,1670.1L2504.42,1669.89L2504.4,1683.48Z" style="fill:rgb(191,15,181);fill-rule:nonzero;"/>
    </g>
    <g transform="matrix(1,0,0,1,-2436.7,-1220.89)">
        <path d="M2450.4,1688.07L2500.59,1688.05L2504.4,1683.48C2534.56,1683.48 2535.55,1683.5 2565.71,1683.5L2582.98,1700.54L2547.73,1700.31L2543.84,1695.47L2509.39,1695.47L2505.58,1700.03C2485.36,1700.04 2458.3,1700.01 2438.08,1700.02L2450.4,1688.07Z" style="fill:rgb(191,15,181);fill-rule:nonzero;"/>
    </g>
    <g transform="matrix(1,0,0,1,-2436.7,-1220.89)">
        <path d="M3331.31,1658.58L3406.51,1658.72L3376.87,1642.04C3360.3,1642.03 3345.65,1642.03 3332,1642.02L3330.4,1642.02C3316.75,1642.03 3302.1,1642.03 3285.53,1642.04L3255.89,1658.72L3331.31,1658.58Z" style="fill:rgb(191,15,181);"/>
    </g>
    <g transform="matrix(1,0,0,1,-2436.7,-1220.89)">
        <path d="M2480.7,1489.67L2480.8,1257L2474.51,1257L2474.41,1489.66L2480.7,1489.67Z" style="fill:rgb(191,15,181);fill-rule:nonzero;"/>
    </g>
    <g transform="matrix(1,0,0,1,-2436.7,-1220.89)">
        <path d="M3459.51,1658.43L3459.61,1523.4L3453.32,1523.4L3453.22,1658.43L3459.51,1658.43Z" style="fill:rgb(191,15,181);fill-rule:nonzero;"/>
    </g>
    <g transform="matrix(1,0,0,1,-2436.7,-1220.89)">
        <path d="M3459.52,1337.23L3426.8,1305.38L3426.7,1290.51L3459.52,1322.75L3459.52,1337.23Z" style="fill:rgb(191,15,181);"/>
    </g>
    <g transform="matrix(1,0,0,1,-2436.7,-1220.89)">
        <path d="M3434.34,1683.7L3459.51,1658.43L3459.52,1645.14L3434.35,1670.1L3434.34,1683.7Z" style="fill:rgb(191,15,181);"/>
    </g>
</svg>
